{"title":"Presenting Lily Mars (1943) - DVDRip","uid":12936250,"size":1656659885,"categoryP":"video","categoryS":"movies","magnet":"?xt=urn:btih:1cd4054c4023d4b5d956dc2996d59bcf0aee23ca&amp;dn=Presenting+Lily+Mars+%281943%29+-+DVDRip&amp;tr=udp%3A%2F%2Ftracker.leechers-paradise.org%3A6969&amp;tr=udp%3A%2F%2Fzer0day.ch%3A1337&amp;tr=udp%3A%2F%2Fopen.demonii.com%3A1337&amp;tr=udp%3A%2F%2Ftracker.coppersurfer.tk%3A6969&amp;tr=udp%3A%2F%2Fexodus.desync.com%3A6969","seeders":0,"leechers":1,"uploader":"wesleybl","files":1,"time":1449584922,"description":"Presenting Lily Mars\r\n\r\nDirector: Norman Taurog\r\n\r\n \nhttp://www.imdb.com/title/tt0036275\r\n\r\n\r\nVideo\r\nID                                       : 1\r\nFormat                                   : AVC\r\nFormat/Info                              : Advanced Video Codec\r\nFormat profile                           :   \r\nFormat settings, CABAC                   : Yes\r\nFormat settings, ReFrames                : 4 frames\r\nCodec ID                                 : V_MPEG4/ISO/AVC\r\nDuration                                 : 1h 43mn\r\nBit rate                                 : 1 896 Kbps\r\nWidth                                    : 710 pixels\r\nHeight                                   : 480 pixels\r\nDisplay aspect ratio                     : 4:3\r\nFrame rate mode                          : Constant\r\nFrame rate                               : 23.976 fps\r\nColor space                              : YUV\r\nChroma subsampling                       : 4:2:0\r\nBit depth                                : 8 bits\r\nScan type                                : Progressive\r\nBits/(Pixel*Frame)                       : 0.232\r\nStream size                              : 1.37 GiB (89%)\r\nWriting library                          : x264 core 142 r2479 dd79a61\r\nDefault                                  : Yes\r\nForced                                   : No\r\nColor primaries                          : BT.601 NTSC\r\nTransfer characteristics                 : BT.709\r\nMatrix coefficients                      : BT.601\r\n\r\nAudio\r\nID                                       : 2\r\nFormat                                   : AC-3\r\nFormat/Info                              : Audio Coding 3\r\nMode extension                           : CM (complete main)\r\nFormat settings, Endianness              : Big\r\nCodec ID                                 : A_AC3\r\nDuration                                 : 1h 43mn\r\nBit rate mode                            : Constant\r\nBit rate                                 : 192 Kbps\r\nChannel(s)                               : 1 channel\r\nChannel positions                        : Front: C\r\nSampling rate                            : 48.0 KHz\r\nBit depth                                : 16 bits\r\nCompression mode                         : Lossy\r\nDelay relative to video                  : 1mn 5s\r\nStream size                              : 142 MiB (9%)\r\nTitle                                    : Mono\r\nLanguage                                 : English\r\nDefault                                  : Yes\r\nForced                                   : No\r\n\r\nText\r\nID                                       : 3\r\nFormat                                   : VobSub\r\nCodec ID                                 : S_VOBSUB\r\nCodec ID/Info                            : The same subtitle format used on DVDs\r\nLanguage                                 : English\r\nDefault                                  : No\r\nForced                                   : No","torrent":{"xt":"urn:btih:1cd4054c4023d4b5d956dc2996d59bcf0aee23ca","amp;dn":"Presenting+Lily+Mars+%281943%29+-+DVDRip","amp;tr":["udp%3A%2F%2Ftracker.leechers-paradise.org%3A6969","udp%3A%2F%2Fzer0day.ch%3A1337","udp%3A%2F%2Fopen.demonii.com%3A1337","udp%3A%2F%2Ftracker.coppersurfer.tk%3A6969","udp%3A%2F%2Fexodus.desync.com%3A6969"],"infoHash":"1cd4054c4023d4b5d956dc2996d59bcf0aee23ca","infoHashBuffer":{"type":"Buffer","data":[28,212,5,76,64,35,212,181,217,86,220,41,150,213,155,207,10,238,35,202]},"announce":[],"urlList":[]}}